<svg width="245" height="306" viewBox="0 0 245 306" fill="none" xmlns="http://www.w3.org/2000/svg">
<path d="M199.062 107.1H76.5625V76.5C76.5625 64.26 81.1562 53.55 90.3437 44.37C108.719 26.01 137.812 26.01 154.656 44.37C160.781 50.49 163.844 58.14 166.906 65.79C168.438 73.44 177.625 78.03 185.281 76.5C192.938 74.97 199.062 65.79 196 58.14C192.937 44.37 185.281 32.13 176.094 22.95C162.312 7.65 142.406 0 122.5 0C79.625 0 45.9375 33.66 45.9375 76.5V107.1C19.9062 107.1 0 126.99 0 153V260.1C0 286.11 19.9062 306 45.9375 306H199.062C225.094 306 245 286.11 245 260.1V153C245 126.99 225.094 107.1 199.062 107.1ZM139.344 206.55L137.812 208.08V229.5C137.812 238.68 131.688 244.8 122.5 244.8C113.312 244.8 107.188 238.68 107.188 229.5V208.08C98 198.9 96.4687 185.13 105.656 175.95C114.844 166.77 128.625 165.24 137.812 174.42C147 182.07 148.531 197.37 139.344 206.55Z" fill="white" fill-opacity="0.05"/>
</svg>
