<svg width="68" height="67" viewBox="0 0 68 67" fill="none" xmlns="http://www.w3.org/2000/svg">
<g clip-path="url(#clip0_2_314)">
<path d="M28.3835 34.5804C28.571 34.2678 28.9774 34.1615 29.2961 34.3553C29.3461 34.3803 29.3836 34.4178 29.4211 34.4553C29.6336 34.6678 29.6774 34.9991 29.5211 35.2679C28.9397 36.2368 28.827 37.3995 29.202 38.4621C29.3207 38.8059 29.1394 39.1872 28.7956 39.306C28.4518 39.4248 28.0705 39.2436 27.9518 38.8998C27.4456 37.4559 27.602 35.8869 28.3835 34.5804ZM21.022 12.978C23.0037 10.9963 26.2291 10.996 28.2105 12.9774C30.1918 14.9587 30.1915 18.1842 28.2098 20.1659C27.866 20.5097 27.4846 20.791 27.0783 21.0098L30.2155 28.9607C33.166 28.0603 36.5102 28.7663 38.8415 31.0977C38.9978 31.2539 39.1353 31.4164 39.279 31.5852L47.7808 25.346C46.9746 23.7646 47.2123 21.7893 48.5314 20.4703C50.1693 18.8324 52.8321 18.8321 54.4697 20.4697C56.1073 22.1073 56.107 24.7702 54.4692 26.408C52.8313 28.0459 50.1871 28.0399 48.5496 26.4273L40.0603 32.654C41.2165 34.5229 41.6039 36.7232 41.2099 38.8173L50.4359 41.3293C50.5922 41.0229 50.7798 40.7354 51.0361 40.4791C52.3302 39.185 54.4305 39.1848 55.7243 40.4786C57.0181 41.7725 57.0179 43.8727 55.7238 45.1668C54.4298 46.4609 52.3295 46.461 51.0357 45.1672C50.3356 44.4672 50.0232 43.5296 50.0858 42.617L40.8535 40.0987C40.4345 41.2677 39.7781 42.3616 38.8404 43.2994C37.04 45.0998 34.6333 45.9314 32.2705 45.7941L31.3322 52.8327C31.7885 52.9889 32.226 53.2389 32.5948 53.6076C33.8886 54.9015 33.8884 57.0017 32.5944 58.2958C31.3003 59.5899 29.2 59.59 27.9062 58.2962C26.6124 57.0024 26.6126 54.9021 27.9066 53.6081C28.4943 53.0204 29.2507 52.7141 30.0195 52.6578L30.9578 45.6192C29.3764 45.288 27.8762 44.5131 26.6574 43.2943C25.0886 41.7254 24.2574 39.694 24.1576 37.6312L13.7499 37.3509C13.5998 38.151 13.2184 38.9199 12.5933 39.545C10.9554 41.1829 8.29255 41.1832 6.65497 39.5456C5.01739 37.908 5.01764 35.2451 6.65552 33.6073C8.29341 31.9694 10.9563 31.9691 12.5939 33.6067C13.2689 34.2817 13.6501 35.1381 13.7688 36.0194L24.189 36.2998C24.3892 34.3995 25.2082 32.5554 26.6648 31.0988C27.365 30.3986 28.1526 29.861 28.9903 29.4483L25.8593 21.4913C24.1841 21.904 22.3464 21.4666 21.04 20.1603C19.0587 18.1789 19.059 14.9535 21.0407 12.9718L21.0282 12.9843L21.022 12.978ZM31.6446 54.5454C30.8695 53.7703 29.6069 53.7704 28.8317 54.5456C28.0565 55.3208 28.0564 56.5835 28.8314 57.3585C29.6065 58.1336 30.8691 58.1334 31.6443 57.3583C32.4195 56.5831 32.4196 55.3204 31.6446 54.5454ZM51.9611 41.4166C51.186 42.1918 51.1858 43.4545 51.9609 44.2295C52.7359 45.0046 53.9986 45.0044 54.7738 44.2293C55.549 43.4541 55.5491 42.1914 54.774 41.4164C53.999 40.6413 52.7363 40.6414 51.9611 41.4166ZM49.4623 25.4771C50.5811 26.5959 52.4063 26.5958 53.5254 25.4767C54.6444 24.3577 54.6445 22.5325 53.5257 21.4137C52.4069 20.2949 50.5817 20.295 49.4627 21.4141C48.3437 22.5331 48.3435 24.3583 49.4623 25.4771ZM11.6433 38.6075C12.7623 37.4885 12.7624 35.6632 11.6436 34.5444C10.5248 33.4256 8.69958 33.4258 7.58057 34.5448C6.46156 35.6638 6.46139 37.4891 7.58019 38.6079C8.69899 39.7267 10.5242 39.7265 11.6433 38.6075ZM27.5836 32.0426C24.7392 34.887 24.7388 39.5127 27.5826 42.3565C30.4265 45.2004 35.0522 45.2 37.8966 42.3556C40.741 39.5112 40.7414 34.8855 37.8976 32.0416C35.0537 29.1977 30.428 29.1982 27.5836 32.0426ZM21.9595 13.9156C20.4967 15.3784 20.4964 17.7663 21.959 19.2288C23.4216 20.6914 25.8094 20.6912 27.2723 19.2283C28.7351 17.7655 28.7353 15.3776 27.2728 13.9151C25.8102 12.4525 23.4224 12.4527 21.9595 13.9156Z" fill="black"/>
</g>
<defs>
<clipPath id="clip0_2_314">
<rect width="47.2988" height="47.2988" fill="white" transform="translate(34 66.8906) rotate(-135)"/>
</clipPath>
</defs>
</svg>
