<svg width="51" height="55" viewBox="0 0 51 55" fill="none" xmlns="http://www.w3.org/2000/svg">
<g clip-path="url(#clip0_2_310)">
<path fill-rule="evenodd" clip-rule="evenodd" d="M21.9539 40.1427C22.9637 41.2467 23.6824 42.5907 24.0507 44.0487L25.399 45.5667L27.9354 43.2747L26.587 41.7507C25.1911 41.2227 23.9497 40.3587 22.9696 39.2247L21.9598 40.1427H21.9539ZM20.4095 39.6147L20.3026 39.7107L19.0077 38.2527L21.4133 36.0747L22.7082 37.5327L20.4748 39.5547C20.4748 39.5547 20.4214 39.5967 20.4036 39.6207L20.4095 39.6147ZM10.6384 41.6727C10.6681 41.7027 10.6978 41.7327 10.7215 41.7687L12.551 43.8327L14.3746 42.1827L8.58316 35.6547L6.75961 37.3107L10.6324 41.6787L10.6384 41.6727ZM10.674 35.4207L19.7502 27.2007L23.914 31.8927L14.6181 40.3107L10.4542 35.6187L10.6681 35.4267L10.674 35.4207ZM45.7194 4.24468V2.33068H10.8641V33.3267L13.2994 31.1247V5.40868C13.2994 4.76668 13.8162 4.23868 14.4577 4.23868H45.7194V4.24468ZM24.7219 26.9367C24.6922 26.9067 24.6625 26.8707 24.6387 26.8407L21.8232 23.6667L19.9996 25.3227L25.7911 31.8507L27.6146 30.1947L24.7219 26.9367ZM30.442 43.9707L27.5314 40.6947C27.4483 40.5927 27.3414 40.5147 27.2107 40.4667C26.4504 40.1967 25.7435 39.8067 25.108 39.3147H30.7925C30.9885 39.3267 31.1845 39.2607 31.327 39.1227C31.4696 38.9847 31.5528 38.7927 31.5528 38.5947C31.5528 38.3967 31.4696 38.2047 31.327 38.0667C31.1845 37.9287 30.9885 37.8627 30.7925 37.8747H24.3595C24.4783 37.6167 24.4308 37.3167 24.2407 37.1067L22.4706 35.1147L24.8585 32.9547L25.1971 33.3387C25.4584 33.6327 25.9039 33.6567 26.195 33.3927L26.385 33.2187H30.4301C30.8222 33.2187 31.1429 32.8947 31.1429 32.4987C31.1429 32.1027 30.8222 31.7787 30.4301 31.7787H27.971L29.0758 30.7767C29.2184 30.6507 29.3015 30.4767 29.3134 30.2847C29.3253 30.0927 29.26 29.9127 29.1352 29.7687L26.789 27.1227H31.1132C31.5052 27.1227 31.826 26.7987 31.826 26.4027C31.826 26.0067 31.5052 25.6827 31.1132 25.6827H25.5119L22.3934 22.1727C22.1321 21.8787 21.6866 21.8487 21.3955 22.1187L18.5147 24.7287C18.2236 24.9927 18.1999 25.4487 18.4612 25.7367L18.7998 26.1207L14.7131 29.8167V5.67868H49.5744V51.2247H35.9364C35.9067 50.4987 35.6275 49.8027 35.1464 49.2627L31.7191 45.3987H42.6426C42.8386 45.4107 43.0346 45.3447 43.1772 45.2067C43.3197 45.0687 43.4029 44.8827 43.4029 44.6787C43.4029 44.4747 43.3197 44.2887 43.1772 44.1507C43.0346 44.0127 42.8386 43.9467 42.6426 43.9587H30.442V43.9707ZM29.6461 45.2187L34.0891 50.2287C34.392 50.5707 34.5465 51.0267 34.5168 51.4887C34.4871 51.9507 34.2732 52.3767 33.9287 52.6827L33.9168 52.6947C33.2159 53.2887 32.1705 53.2167 31.5528 52.5267L26.3316 46.6467L28.8679 44.3547L29.6401 45.2247L29.6461 45.2187ZM38.942 10.4247V14.1747H19.0968V10.4247H38.942ZM18.3899 8.98468H39.6548C40.0468 8.98468 40.3676 9.30868 40.3676 9.70468V14.8887C40.3676 15.2847 40.0468 15.6087 39.6548 15.6087H18.3899C17.9979 15.6087 17.6771 15.2847 17.6771 14.8887V9.69868C17.6771 9.30268 17.9979 8.97868 18.3899 8.97868V8.98468ZM18.3899 21.0387C17.9979 21.0387 17.6771 20.7147 17.6771 20.3187C17.6771 19.9227 17.9979 19.5987 18.3899 19.5987H38.152C38.544 19.5987 38.8648 19.9227 38.8648 20.3187C38.8648 20.7147 38.544 21.0387 38.152 21.0387H18.3899ZM16.8515 50.9607H1.42558V53.4567H16.8515V50.9607ZM14.4043 49.5207V48.4527C14.4161 48.1407 14.3389 47.8347 14.1964 47.5647C14.0835 47.3787 14.0776 47.3907 14.0063 47.3907H4.21733C4.21733 47.3907 4.14011 47.4567 4.08071 47.5647C3.93222 47.8407 3.86094 48.1467 3.87282 48.4527V49.5207H14.4043ZM14.725 46.1307V43.7967L15.8595 42.7707C16.1506 42.5067 16.1744 42.0567 15.913 41.7627L15.5744 41.3787L17.9623 39.2187L19.7264 41.2107C19.9878 41.5047 20.4333 41.5347 20.7243 41.2647L20.8966 41.1087C21.7876 42.0807 22.4113 43.2747 22.7082 44.5647C22.7379 44.6967 22.8033 44.8227 22.9043 44.9187L28.5175 51.2427H18.283V50.2527C18.283 49.8567 17.9623 49.5327 17.5702 49.5327H15.8358V48.4707C15.8952 47.5527 15.4734 46.6707 14.731 46.1427L14.725 46.1307ZM10.8641 45.9567H13.2994V45.0807L12.9727 45.3747C12.6817 45.6387 12.2303 45.6147 11.9748 45.3207L10.87 44.0727V45.9567H10.8641ZM2.44724 49.5207C2.44724 48.5367 2.36408 47.6667 2.86303 46.8267C3.12439 46.3107 3.64116 45.9747 4.21733 45.9507H9.44444V42.4707L5.23305 37.7307C4.9717 37.4367 5.0014 36.9807 5.28651 36.7167L8.16737 34.1067C8.30398 33.9807 8.49406 33.9147 8.6782 33.9267C8.86827 33.9387 9.04053 34.0227 9.16527 34.1607L9.4385 34.4667V2.03668C9.46226 1.39468 9.97904 0.890677 10.6146 0.890677H45.9748C46.6104 0.884677 47.1331 1.39468 47.145 2.03668V4.24468H49.8417C50.1506 4.24468 50.4417 4.37068 50.6614 4.58668C50.8812 4.80268 51 5.10268 51 5.41468V51.9447C51 52.3407 50.6792 52.6647 50.2872 52.6647H35.6691C35.4969 53.0487 35.2474 53.3967 34.9385 53.6847C34.9088 53.7087 34.885 53.7387 34.8553 53.7567C33.5664 54.8667 31.6419 54.7347 30.5073 53.4687L29.7945 52.6647H18.283V54.1767C18.283 54.5727 17.9623 54.8967 17.5702 54.8967H0.712788C0.320755 54.8967 0 54.5727 0 54.1767V50.2467C0 49.8507 0.320755 49.5267 0.712788 49.5267H2.44724V49.5207ZM42.3277 26.6727C44.769 27.4407 46.5154 29.6187 46.747 32.1927C46.9787 34.7667 45.6541 37.2267 43.385 38.4327C41.1219 39.6327 38.3599 39.3387 36.3938 37.6827C34.4277 36.0267 33.6436 33.3387 34.4039 30.8727C35.4493 27.5067 38.9895 25.6287 42.3277 26.6727ZM36.9046 25.8147C39.6785 24.3747 43.0405 24.7527 45.4343 26.7867C47.8222 28.8147 48.7725 32.0907 47.8459 35.1027C46.9193 38.1147 44.2938 40.2687 41.1873 40.5687C38.0807 40.8687 35.0989 39.2547 33.6258 36.4767C33.602 36.4347 33.5783 36.3927 33.5604 36.3507C31.63 32.5527 33.0674 27.8967 36.7918 25.8807C36.8333 25.8567 36.8749 25.8327 36.9165 25.8147H36.9046ZM36.1502 33.5727C35.9542 33.2307 36.0671 32.7927 36.4057 32.5947C36.7442 32.3967 37.1778 32.5107 37.3798 32.8587L38.3539 34.5687L43.6286 29.3187C43.9137 29.0547 44.3473 29.0667 44.6146 29.3427C44.8819 29.6187 44.8878 30.0567 44.6265 30.3387L38.7163 36.2187C38.5618 36.3807 38.3421 36.4587 38.1223 36.4347C37.8966 36.4107 37.7006 36.2787 37.5936 36.0867L36.1562 33.5787L36.1502 33.5727Z" fill="black"/>
<path fill-rule="evenodd" clip-rule="evenodd" d="M36.1502 33.5727C35.9542 33.2307 36.0671 32.7927 36.4057 32.5947C36.7442 32.3967 37.1779 32.5107 37.3798 32.8587L38.354 34.5687L43.6286 29.3187C43.9137 29.0547 44.3473 29.0667 44.6146 29.3427C44.8819 29.6187 44.8878 30.0567 44.6265 30.3387L38.7163 36.2187C38.5618 36.3807 38.3421 36.4587 38.1223 36.4347C37.8966 36.4107 37.7006 36.2787 37.5936 36.0867L36.1562 33.5787L36.1502 33.5727Z" fill="black"/>
</g>
<defs>
<clipPath id="clip0_2_310">
<rect width="51" height="54" fill="white" transform="translate(0 0.890625)"/>
</clipPath>
</defs>
</svg>
